<?xml version="1.0" encoding="utf-8" standalone="no"?>
<!DOCTYPE svg PUBLIC "-//W3C//DTD SVG 1.1//EN"
  "http://www.w3.org/Graphics/SVG/1.1/DTD/svg11.dtd">
<svg xmlns:xlink="http://www.w3.org/1999/xlink" width="835.391563pt" height="490.398375pt" viewBox="0 0 835.391563 490.398375" xmlns="http://www.w3.org/2000/svg" version="1.1">
 <metadata>
  <rdf:RDF xmlns:dc="http://purl.org/dc/elements/1.1/" xmlns:cc="http://creativecommons.org/ns#" xmlns:rdf="http://www.w3.org/1999/02/22-rdf-syntax-ns#">
   <cc:Work>
    <dc:type rdf:resource="http://purl.org/dc/dcmitype/StillImage"/>
    <dc:date>2025-10-23T21:29:40.286035</dc:date>
    <dc:format>image/svg+xml</dc:format>
    <dc:creator>
     <cc:Agent>
      <dc:title>Matplotlib v3.10.6, https://matplotlib.org/</dc:title>
     </cc:Agent>
    </dc:creator>
   </cc:Work>
  </rdf:RDF>
 </metadata>
 <defs>
  <style type="text/css">*{stroke-linejoin: round; stroke-linecap: butt}</style>
 </defs>
 <g id="figure_1">
  <g id="patch_1">
   <path d="M 0 490.398375 
L 835.391563 490.398375 
L 835.391563 0 
L 0 0 
z
" style="fill: #ffffff"/>
  </g>
  <g id="axes_1">
   <g id="patch_2">
    <path d="M 46.991563 436.10625 
L 828.191563 436.10625 
L 828.191563 48.02625 
L 46.991563 48.02625 
z
" style="fill: #ffffff"/>
   </g>
   <g id="matplotlib.axis_1">
    <g id="xtick_1">
     <g id="line2d_1">
      <path d="M 128.816859 436.10625 
L 128.816859 48.02625 
" clip-path="url(#p73356eddba)" style="fill: none; stroke-dasharray: 0.8,1.32; stroke-dashoffset: 0; stroke: #cccccc; stroke-opacity: 0.3; stroke-width: 0.8"/>
     </g>
     <g id="line2d_2">
      <defs>
       <path id="maed3302487" d="M 0 0 
L 0 3.5 
" style="stroke: #000000; stroke-width: 0.8"/>
      </defs>
      <g>
       <use xlink:href="#maed3302487" x="128.816859" y="436.10625" style="stroke: #000000; stroke-width: 0.8"/>
      </g>
     </g>
     <g id="text_1">
      <text style="font-size: 12px; font-family: 'Palatino', 'Times New Roman', 'DejaVu Serif', serif" transform="translate(121.147171 451.43875)">SQ</text>
      <text style="font-size: 12px; font-family: 'Palatino', 'Times New Roman', 'DejaVu Serif', serif" transform="translate(115.486546 464.004625)">Corta</text>
     </g>
    </g>
    <g id="xtick_2">
     <g id="line2d_3">
      <path d="M 252.32674 436.10625 
L 252.32674 48.02625 
" clip-path="url(#p73356eddba)" style="fill: none; stroke-dasharray: 0.8,1.32; stroke-dashoffset: 0; stroke: #cccccc; stroke-opacity: 0.3; stroke-width: 0.8"/>
     </g>
     <g id="line2d_4">
      <g>
       <use xlink:href="#maed3302487" x="252.32674" y="436.10625" style="stroke: #000000; stroke-width: 0.8"/>
      </g>
     </g>
     <g id="text_2">
      <text style="font-size: 12px; font-family: 'Palatino', 'Times New Roman', 'DejaVu Serif', serif" transform="translate(244.657053 451.43875)">SQ</text>
      <text style="font-size: 12px; font-family: 'Palatino', 'Times New Roman', 'DejaVu Serif', serif" transform="translate(236.997678 464.004625)">Media</text>
     </g>
    </g>
    <g id="xtick_3">
     <g id="line2d_5">
      <path d="M 375.836622 436.10625 
L 375.836622 48.02625 
" clip-path="url(#p73356eddba)" style="fill: none; stroke-dasharray: 0.8,1.32; stroke-dashoffset: 0; stroke: #cccccc; stroke-opacity: 0.3; stroke-width: 0.8"/>
     </g>
     <g id="line2d_6">
      <g>
       <use xlink:href="#maed3302487" x="375.836622" y="436.10625" style="stroke: #000000; stroke-width: 0.8"/>
      </g>
     </g>
     <g id="text_3">
      <text style="font-size: 12px; font-family: 'Palatino', 'Times New Roman', 'DejaVu Serif', serif" transform="translate(368.166934 451.43875)">SQ</text>
      <text style="font-size: 12px; font-family: 'Palatino', 'Times New Roman', 'DejaVu Serif', serif" transform="translate(361.952247 464.004625)">Larga</text>
     </g>
    </g>
    <g id="xtick_4">
     <g id="line2d_7">
      <path d="M 499.346503 436.10625 
L 499.346503 48.02625 
" clip-path="url(#p73356eddba)" style="fill: none; stroke-dasharray: 0.8,1.32; stroke-dashoffset: 0; stroke: #cccccc; stroke-opacity: 0.3; stroke-width: 0.8"/>
     </g>
     <g id="line2d_8">
      <g>
       <use xlink:href="#maed3302487" x="499.346503" y="436.10625" style="stroke: #000000; stroke-width: 0.8"/>
      </g>
     </g>
     <g id="text_4">
      <text style="font-size: 12px; font-family: 'Palatino', 'Times New Roman', 'DejaVu Serif', serif" transform="translate(488.012128 451.43875)">Prop</text>
      <text style="font-size: 12px; font-family: 'Palatino', 'Times New Roman', 'DejaVu Serif', serif" transform="translate(486.016191 464.004625)">Corta</text>
     </g>
    </g>
    <g id="xtick_5">
     <g id="line2d_9">
      <path d="M 622.856385 436.10625 
L 622.856385 48.02625 
" clip-path="url(#p73356eddba)" style="fill: none; stroke-dasharray: 0.8,1.32; stroke-dashoffset: 0; stroke: #cccccc; stroke-opacity: 0.3; stroke-width: 0.8"/>
     </g>
     <g id="line2d_10">
      <g>
       <use xlink:href="#maed3302487" x="622.856385" y="436.10625" style="stroke: #000000; stroke-width: 0.8"/>
      </g>
     </g>
     <g id="text_5">
      <text style="font-size: 12px; font-family: 'Palatino', 'Times New Roman', 'DejaVu Serif', serif" transform="translate(611.52201 451.43875)">Prop</text>
      <text style="font-size: 12px; font-family: 'Palatino', 'Times New Roman', 'DejaVu Serif', serif" transform="translate(607.527322 464.004625)">Media</text>
     </g>
    </g>
    <g id="xtick_6">
     <g id="line2d_11">
      <path d="M 746.366266 436.10625 
L 746.366266 48.02625 
" clip-path="url(#p73356eddba)" style="fill: none; stroke-dasharray: 0.8,1.32; stroke-dashoffset: 0; stroke: #cccccc; stroke-opacity: 0.3; stroke-width: 0.8"/>
     </g>
     <g id="line2d_12">
      <g>
       <use xlink:href="#maed3302487" x="746.366266" y="436.10625" style="stroke: #000000; stroke-width: 0.8"/>
      </g>
     </g>
     <g id="text_6">
      <text style="font-size: 12px; font-family: 'Palatino', 'Times New Roman', 'DejaVu Serif', serif" transform="translate(735.031891 451.43875)">Prop</text>
      <text style="font-size: 12px; font-family: 'Palatino', 'Times New Roman', 'DejaVu Serif', serif" transform="translate(732.481891 464.004625)">Larga</text>
     </g>
    </g>
    <g id="text_7">
     <text style="font-weight: 700; font-size: 14px; font-family: 'Palatino', 'Times New Roman', 'DejaVu Serif', serif; text-anchor: middle" x="437.591563" y="480.177437" transform="rotate(-0 437.591563 480.177437)">Configuración</text>
    </g>
   </g>
   <g id="matplotlib.axis_2">
    <g id="ytick_1">
     <g id="line2d_13">
      <path d="M 46.991563 436.10625 
L 828.191563 436.10625 
" clip-path="url(#p73356eddba)" style="fill: none; stroke-dasharray: 0.8,1.32; stroke-dashoffset: 0; stroke: #cccccc; stroke-opacity: 0.3; stroke-width: 0.8"/>
     </g>
     <g id="line2d_14">
      <defs>
       <path id="m0bc4d879ec" d="M 0 0 
L -3.5 0 
" style="stroke: #000000; stroke-width: 0.8"/>
      </defs>
      <g>
       <use xlink:href="#m0bc4d879ec" x="46.991563" y="436.10625" style="stroke: #000000; stroke-width: 0.8"/>
      </g>
     </g>
     <g id="text_8">
      <text style="font-size: 11px; font-family: 'Palatino', 'Times New Roman', 'DejaVu Serif', serif; text-anchor: end" x="39.991563" y="439.925312" transform="rotate(-0 39.991563 439.925312)">70</text>
     </g>
    </g>
    <g id="ytick_2">
     <g id="line2d_15">
      <path d="M 46.991563 380.66625 
L 828.191563 380.66625 
" clip-path="url(#p73356eddba)" style="fill: none; stroke-dasharray: 0.8,1.32; stroke-dashoffset: 0; stroke: #cccccc; stroke-opacity: 0.3; stroke-width: 0.8"/>
     </g>
     <g id="line2d_16">
      <g>
       <use xlink:href="#m0bc4d879ec" x="46.991563" y="380.66625" style="stroke: #000000; stroke-width: 0.8"/>
      </g>
     </g>
     <g id="text_9">
      <text style="font-size: 11px; font-family: 'Palatino', 'Times New Roman', 'DejaVu Serif', serif; text-anchor: end" x="39.991563" y="384.485312" transform="rotate(-0 39.991563 384.485312)">75</text>
     </g>
    </g>
    <g id="ytick_3">
     <g id="line2d_17">
      <path d="M 46.991563 325.22625 
L 828.191563 325.22625 
" clip-path="url(#p73356eddba)" style="fill: none; stroke-dasharray: 0.8,1.32; stroke-dashoffset: 0; stroke: #cccccc; stroke-opacity: 0.3; stroke-width: 0.8"/>
     </g>
     <g id="line2d_18">
      <g>
       <use xlink:href="#m0bc4d879ec" x="46.991563" y="325.22625" style="stroke: #000000; stroke-width: 0.8"/>
      </g>
     </g>
     <g id="text_10">
      <text style="font-size: 11px; font-family: 'Palatino', 'Times New Roman', 'DejaVu Serif', serif; text-anchor: end" x="39.991563" y="329.045312" transform="rotate(-0 39.991563 329.045312)">80</text>
     </g>
    </g>
    <g id="ytick_4">
     <g id="line2d_19">
      <path d="M 46.991563 269.78625 
L 828.191563 269.78625 
" clip-path="url(#p73356eddba)" style="fill: none; stroke-dasharray: 0.8,1.32; stroke-dashoffset: 0; stroke: #cccccc; stroke-opacity: 0.3; stroke-width: 0.8"/>
     </g>
     <g id="line2d_20">
      <g>
       <use xlink:href="#m0bc4d879ec" x="46.991563" y="269.78625" style="stroke: #000000; stroke-width: 0.8"/>
      </g>
     </g>
     <g id="text_11">
      <text style="font-size: 11px; font-family: 'Palatino', 'Times New Roman', 'DejaVu Serif', serif; text-anchor: end" x="39.991563" y="273.605312" transform="rotate(-0 39.991563 273.605312)">85</text>
     </g>
    </g>
    <g id="ytick_5">
     <g id="line2d_21">
      <path d="M 46.991563 214.34625 
L 828.191563 214.34625 
" clip-path="url(#p73356eddba)" style="fill: none; stroke-dasharray: 0.8,1.32; stroke-dashoffset: 0; stroke: #cccccc; stroke-opacity: 0.3; stroke-width: 0.8"/>
     </g>
     <g id="line2d_22">
      <g>
       <use xlink:href="#m0bc4d879ec" x="46.991563" y="214.34625" style="stroke: #000000; stroke-width: 0.8"/>
      </g>
     </g>
     <g id="text_12">
      <text style="font-size: 11px; font-family: 'Palatino', 'Times New Roman', 'DejaVu Serif', serif; text-anchor: end" x="39.991563" y="218.165312" transform="rotate(-0 39.991563 218.165312)">90</text>
     </g>
    </g>
    <g id="ytick_6">
     <g id="line2d_23">
      <path d="M 46.991563 158.90625 
L 828.191563 158.90625 
" clip-path="url(#p73356eddba)" style="fill: none; stroke-dasharray: 0.8,1.32; stroke-dashoffset: 0; stroke: #cccccc; stroke-opacity: 0.3; stroke-width: 0.8"/>
     </g>
     <g id="line2d_24">
      <g>
       <use xlink:href="#m0bc4d879ec" x="46.991563" y="158.90625" style="stroke: #000000; stroke-width: 0.8"/>
      </g>
     </g>
     <g id="text_13">
      <text style="font-size: 11px; font-family: 'Palatino', 'Times New Roman', 'DejaVu Serif', serif; text-anchor: end" x="39.991563" y="162.725312" transform="rotate(-0 39.991563 162.725312)">95</text>
     </g>
    </g>
    <g id="ytick_7">
     <g id="line2d_25">
      <path d="M 46.991563 103.46625 
L 828.191563 103.46625 
" clip-path="url(#p73356eddba)" style="fill: none; stroke-dasharray: 0.8,1.32; stroke-dashoffset: 0; stroke: #cccccc; stroke-opacity: 0.3; stroke-width: 0.8"/>
     </g>
     <g id="line2d_26">
      <g>
       <use xlink:href="#m0bc4d879ec" x="46.991563" y="103.46625" style="stroke: #000000; stroke-width: 0.8"/>
      </g>
     </g>
     <g id="text_14">
      <text style="font-size: 11px; font-family: 'Palatino', 'Times New Roman', 'DejaVu Serif', serif; text-anchor: end" x="39.991563" y="107.285312" transform="rotate(-0 39.991563 107.285312)">100</text>
     </g>
    </g>
    <g id="ytick_8">
     <g id="line2d_27">
      <path d="M 46.991563 48.02625 
L 828.191563 48.02625 
" clip-path="url(#p73356eddba)" style="fill: none; stroke-dasharray: 0.8,1.32; stroke-dashoffset: 0; stroke: #cccccc; stroke-opacity: 0.3; stroke-width: 0.8"/>
     </g>
     <g id="line2d_28">
      <g>
       <use xlink:href="#m0bc4d879ec" x="46.991563" y="48.02625" style="stroke: #000000; stroke-width: 0.8"/>
      </g>
     </g>
     <g id="text_15">
      <text style="font-size: 11px; font-family: 'Palatino', 'Times New Roman', 'DejaVu Serif', serif; text-anchor: end" x="39.991563" y="51.845312" transform="rotate(-0 39.991563 51.845312)">105</text>
     </g>
    </g>
    <g id="text_16">
     <text style="font-weight: 700; font-size: 14px; font-family: 'Palatino', 'Times New Roman', 'DejaVu Serif', serif; text-anchor: middle" x="16.496875" y="242.06625" transform="rotate(-90 16.496875 242.06625)">Nivel de Servicio (%)</text>
    </g>
   </g>
   <g id="FillBetweenPolyCollection_1">
    <defs>
     <path id="m9c45a0f72f" d="M 129.896099 -148.234096 
L 127.737619 -148.234096 
L 127.457322 -150.275005 
L 127.118193 -152.315914 
L 126.703674 -154.356823 
L 126.191426 -156.397731 
L 125.553305 -158.43864 
L 124.756316 -160.479549 
L 123.764635 -162.520458 
L 122.542542 -164.561367 
L 121.057945 -166.602275 
L 119.286026 -168.643184 
L 117.212568 -170.684093 
L 114.836578 -172.725002 
L 112.172043 -174.765911 
L 109.248819 -176.806819 
L 106.112845 -178.847728 
L 102.825902 -180.888637 
L 99.465081 -182.929546 
L 96.121911 -184.970455 
L 92.900819 -187.011363 
L 89.916345 -189.052272 
L 87.28851 -191.093181 
L 85.135941 -193.13409 
L 83.566924 -195.174999 
L 82.669289 -197.215907 
L 82.500653 -199.256816 
L 83.080886 -201.297725 
L 84.388382 -203.338634 
L 86.361038 -205.379543 
L 88.901769 -207.420451 
L 91.887498 -209.46136 
L 95.17997 -211.502269 
L 98.636707 -213.543178 
L 102.120812 -215.584087 
L 105.508911 -217.624995 
L 108.697076 -219.665904 
L 111.604803 -221.706813 
L 114.17721 -223.747722 
L 116.385482 -225.788631 
L 118.22553 -227.829539 
L 119.714889 -229.870448 
L 120.888078 -231.911357 
L 121.790917 -233.952266 
L 122.474491 -235.993175 
L 122.989552 -238.034083 
L 123.38202 -240.074992 
L 123.690002 -242.115901 
L 123.942432 -244.15681 
L 124.159158 -246.197719 
L 124.352097 -248.238627 
L 124.527009 -250.279536 
L 124.685478 -252.320445 
L 124.826807 -254.361354 
L 124.949636 -256.402263 
L 125.053194 -258.443171 
L 125.138141 -260.48408 
L 125.206975 -262.524989 
L 125.263965 -264.565898 
L 125.314627 -266.606807 
L 125.364816 -268.647715 
L 125.419598 -270.688624 
L 125.48215 -272.729533 
L 125.552964 -274.770442 
L 125.629595 -276.811351 
L 125.707067 -278.852259 
L 125.778885 -280.893168 
L 125.838452 -282.934077 
L 125.880562 -284.974986 
L 125.902625 -287.015895 
L 125.905359 -289.056803 
L 125.892792 -291.097712 
L 125.871612 -293.138621 
L 125.850025 -295.17953 
L 125.836336 -297.220439 
L 125.837524 -299.261347 
L 125.857993 -301.302256 
L 125.898674 -303.343165 
L 125.956587 -305.384074 
L 126.024963 -307.424983 
L 126.093967 -309.465891 
L 126.152013 -311.5068 
L 126.187547 -313.547709 
L 126.191038 -315.588618 
L 126.156848 -317.629527 
L 126.084592 -319.670435 
L 125.979717 -321.711344 
L 125.853134 -323.752253 
L 125.71999 -325.793162 
L 125.597795 -327.834071 
L 125.504255 -329.874979 
L 125.455153 -331.915888 
L 125.462574 -333.956797 
L 125.533669 -335.997706 
L 125.670025 -338.038615 
L 125.867662 -340.079523 
L 126.117612 -342.120432 
L 126.406975 -344.161341 
L 126.720354 -346.20225 
L 127.041492 -348.243159 
L 127.354915 -350.284067 
L 130.278803 -350.284067 
L 130.278803 -350.284067 
L 130.592226 -348.243159 
L 130.913363 -346.20225 
L 131.226742 -344.161341 
L 131.516106 -342.120432 
L 131.766056 -340.079523 
L 131.963693 -338.038615 
L 132.100049 -335.997706 
L 132.171144 -333.956797 
L 132.178565 -331.915888 
L 132.129463 -329.874979 
L 132.035923 -327.834071 
L 131.913728 -325.793162 
L 131.780584 -323.752253 
L 131.654001 -321.711344 
L 131.549125 -319.670435 
L 131.47687 -317.629527 
L 131.442679 -315.588618 
L 131.446171 -313.547709 
L 131.481705 -311.5068 
L 131.539751 -309.465891 
L 131.608755 -307.424983 
L 131.67713 -305.384074 
L 131.735044 -303.343165 
L 131.775724 -301.302256 
L 131.796194 -299.261347 
L 131.797382 -297.220439 
L 131.783693 -295.17953 
L 131.762105 -293.138621 
L 131.740926 -291.097712 
L 131.728359 -289.056803 
L 131.731093 -287.015895 
L 131.753156 -284.974986 
L 131.795266 -282.934077 
L 131.854833 -280.893168 
L 131.926651 -278.852259 
L 132.004123 -276.811351 
L 132.080754 -274.770442 
L 132.151568 -272.729533 
L 132.21412 -270.688624 
L 132.268902 -268.647715 
L 132.319091 -266.606807 
L 132.369753 -264.565898 
L 132.426742 -262.524989 
L 132.495577 -260.48408 
L 132.580524 -258.443171 
L 132.684082 -256.402263 
L 132.806911 -254.361354 
L 132.94824 -252.320445 
L 133.106709 -250.279536 
L 133.281621 -248.238627 
L 133.47456 -246.197719 
L 133.691286 -244.15681 
L 133.943715 -242.115901 
L 134.251697 -240.074992 
L 134.644166 -238.034083 
L 135.159227 -235.993175 
L 135.8428 -233.952266 
L 136.745639 -231.911357 
L 137.918829 -229.870448 
L 139.408188 -227.829539 
L 141.248236 -225.788631 
L 143.456508 -223.747722 
L 146.028915 -221.706813 
L 148.936641 -219.665904 
L 152.124806 -217.624995 
L 155.512906 -215.584087 
L 158.997011 -213.543178 
L 162.453748 -211.502269 
L 165.74622 -209.46136 
L 168.731949 -207.420451 
L 171.272679 -205.379543 
L 173.245336 -203.338634 
L 174.552832 -201.297725 
L 175.133064 -199.256816 
L 174.964429 -197.215907 
L 174.066794 -195.174999 
L 172.497777 -193.13409 
L 170.345208 -191.093181 
L 167.717373 -189.052272 
L 164.732899 -187.011363 
L 161.511806 -184.970455 
L 158.168637 -182.929546 
L 154.807816 -180.888637 
L 151.520873 -178.847728 
L 148.384899 -176.806819 
L 145.461675 -174.765911 
L 142.79714 -172.725002 
L 140.42115 -170.684093 
L 138.347692 -168.643184 
L 136.575773 -166.602275 
L 135.091176 -164.561367 
L 133.869083 -162.520458 
L 132.877402 -160.479549 
L 132.080413 -158.43864 
L 131.442292 -156.397731 
L 130.930044 -154.356823 
L 130.515525 -152.315914 
L 130.176396 -150.275005 
L 129.896099 -148.234096 
z
" style="stroke: #000000; stroke-opacity: 0.75; stroke-width: 1.3"/>
    </defs>
    <g clip-path="url(#p73356eddba)">
     <use xlink:href="#m9c45a0f72f" x="0" y="490.398375" style="fill: #89c5da; fill-opacity: 0.75; stroke: #000000; stroke-opacity: 0.75; stroke-width: 1.3"/>
    </g>
   </g>
   <g id="FillBetweenPolyCollection_2">
    <defs>
     <path id="ma0c6942933" d="M 252.656859 -60.704315 
L 251.996622 -60.704315 
L 251.888085 -63.593322 
L 251.748783 -66.482328 
L 251.574869 -69.371335 
L 251.366417 -72.260341 
L 251.127918 -75.149347 
L 250.867089 -78.038354 
L 250.592487 -80.92736 
L 250.311153 -83.816367 
L 250.027346 -86.705373 
L 249.74251 -89.594379 
L 249.455527 -92.483386 
L 249.162012 -95.372392 
L 248.852165 -98.261399 
L 248.508198 -101.150405 
L 248.103239 -104.039411 
L 247.603235 -106.928418 
L 246.971753 -109.817424 
L 246.175836 -112.706431 
L 245.190484 -115.595437 
L 244.000116 -118.484443 
L 242.597095 -121.37345 
L 240.978783 -124.262456 
L 239.145153 -127.151463 
L 237.098509 -130.040469 
L 234.845914 -132.929475 
L 232.403901 -135.818482 
L 229.804129 -138.707488 
L 227.097965 -141.596495 
L 224.357659 -144.485501 
L 221.672115 -147.374507 
L 219.136525 -150.263514 
L 216.837081 -153.15252 
L 214.834118 -156.041527 
L 213.148566 -158.930533 
L 211.756766 -161.819539 
L 210.597319 -164.708546 
L 209.590385 -167.597552 
L 208.665526 -170.486559 
L 207.790232 -173.375565 
L 206.989755 -176.264571 
L 206.351231 -179.153578 
L 206.010535 -182.042584 
L 206.126171 -184.931591 
L 206.847798 -187.820597 
L 208.28662 -190.709603 
L 210.492399 -193.59861 
L 213.439691 -196.487616 
L 217.025086 -199.376623 
L 221.076802 -202.265629 
L 225.37627 -205.154635 
L 229.688176 -208.043642 
L 233.792564 -210.932648 
L 237.511915 -213.821655 
L 240.728094 -216.710661 
L 243.387406 -219.599667 
L 245.49497 -222.488674 
L 247.101365 -225.37768 
L 248.285263 -228.266687 
L 249.135774 -231.155693 
L 249.737733 -234.044699 
L 250.161954 -236.933706 
L 250.46095 -239.822712 
L 250.669219 -242.711719 
L 250.806592 -245.600725 
L 250.883227 -248.489731 
L 250.905181 -251.378738 
L 250.879663 -254.267744 
L 250.81884 -257.156751 
L 250.740957 -260.045757 
L 250.667996 -262.934763 
L 250.620398 -265.82377 
L 250.610835 -268.712776 
L 250.639816 -271.601783 
L 250.695312 -274.490789 
L 250.756746 -277.379795 
L 250.801746 -280.268802 
L 250.81299 -283.157808 
L 250.78288 -286.046815 
L 250.715059 -288.935821 
L 250.623006 -291.824827 
L 250.526465 -294.713834 
L 250.446419 -297.60284 
L 250.399365 -300.491847 
L 250.392064 -303.380853 
L 250.418458 -306.269859 
L 250.46025 -309.158866 
L 250.491545 -312.047872 
L 250.486326 -314.936879 
L 250.426425 -317.825885 
L 250.30757 -320.714891 
L 250.141946 -323.603898 
L 249.956823 -326.492904 
L 249.78963 -329.381911 
L 249.6804 -332.270917 
L 249.66298 -335.159923 
L 249.756966 -338.04893 
L 249.962602 -340.937936 
L 250.260401 -343.826943 
L 250.615896 -346.715949 
L 254.037585 -346.715949 
L 254.037585 -346.715949 
L 254.393079 -343.826943 
L 254.690879 -340.937936 
L 254.896514 -338.04893 
L 254.990501 -335.159923 
L 254.973081 -332.270917 
L 254.863851 -329.381911 
L 254.696658 -326.492904 
L 254.511534 -323.603898 
L 254.34591 -320.714891 
L 254.227055 -317.825885 
L 254.167155 -314.936879 
L 254.161936 -312.047872 
L 254.193231 -309.158866 
L 254.235023 -306.269859 
L 254.261416 -303.380853 
L 254.254116 -300.491847 
L 254.207062 -297.60284 
L 254.127016 -294.713834 
L 254.030475 -291.824827 
L 253.938422 -288.935821 
L 253.870601 -286.046815 
L 253.84049 -283.157808 
L 253.851734 -280.268802 
L 253.896735 -277.379795 
L 253.958169 -274.490789 
L 254.013665 -271.601783 
L 254.042646 -268.712776 
L 254.033082 -265.82377 
L 253.985485 -262.934763 
L 253.912524 -260.045757 
L 253.83464 -257.156751 
L 253.773818 -254.267744 
L 253.748299 -251.378738 
L 253.770254 -248.489731 
L 253.846889 -245.600725 
L 253.984262 -242.711719 
L 254.19253 -239.822712 
L 254.491527 -236.933706 
L 254.915748 -234.044699 
L 255.517706 -231.155693 
L 256.368217 -228.266687 
L 257.552116 -225.37768 
L 259.158511 -222.488674 
L 261.266075 -219.599667 
L 263.925387 -216.710661 
L 267.141566 -213.821655 
L 270.860917 -210.932648 
L 274.965305 -208.043642 
L 279.27721 -205.154635 
L 283.576678 -202.265629 
L 287.628395 -199.376623 
L 291.21379 -196.487616 
L 294.161082 -193.59861 
L 296.366861 -190.709603 
L 297.805683 -187.820597 
L 298.52731 -184.931591 
L 298.642946 -182.042584 
L 298.302249 -179.153578 
L 297.663726 -176.264571 
L 296.863249 -173.375565 
L 295.987955 -170.486559 
L 295.063096 -167.597552 
L 294.056162 -164.708546 
L 292.896715 -161.819539 
L 291.504915 -158.930533 
L 289.819362 -156.041527 
L 287.8164 -153.15252 
L 285.516955 -150.263514 
L 282.981366 -147.374507 
L 280.295822 -144.485501 
L 277.555516 -141.596495 
L 274.849352 -138.707488 
L 272.24958 -135.818482 
L 269.807567 -132.929475 
L 267.554972 -130.040469 
L 265.508327 -127.151463 
L 263.674698 -124.262456 
L 262.056386 -121.37345 
L 260.653365 -118.484443 
L 259.462997 -115.595437 
L 258.477645 -112.706431 
L 257.681728 -109.817424 
L 257.050245 -106.928418 
L 256.550242 -104.039411 
L 256.145282 -101.150405 
L 255.801316 -98.261399 
L 255.491469 -95.372392 
L 255.197953 -92.483386 
L 254.910971 -89.594379 
L 254.626134 -86.705373 
L 254.342328 -83.816367 
L 254.060994 -80.92736 
L 253.786392 -78.038354 
L 253.525563 -75.149347 
L 253.287064 -72.260341 
L 253.078611 -69.371335 
L 252.904698 -66.482328 
L 252.765395 -63.593322 
L 252.656859 -60.704315 
z
" style="stroke: #000000; stroke-opacity: 0.75; stroke-width: 1.3"/>
    </defs>
    <g clip-path="url(#p73356eddba)">
     <use xlink:href="#ma0c6942933" x="0" y="490.398375" style="fill: #f0e442; fill-opacity: 0.75; stroke: #000000; stroke-opacity: 0.75; stroke-width: 1.3"/>
    </g>
   </g>
   <g id="FillBetweenPolyCollection_3">
    <defs>
     <path id="m54d6cc4f4b" d="M 376.301529 11.386534 
L 375.371714 11.386534 
L 375.238233 7.695115 
L 375.095903 4.003696 
L 374.953354 0.312277 
L 374.818609 -3.379143 
L 374.695023 -7.070562 
L 374.577267 -10.761981 
L 374.449524 -14.4534 
L 374.287585 -18.144819 
L 374.064955 -21.836239 
L 373.761053 -25.527658 
L 373.368302 -29.219077 
L 372.894933 -32.910496 
L 372.361856 -36.601915 
L 371.794074 -40.293335 
L 371.209215 -43.984754 
L 370.607232 -47.676173 
L 369.965794 -51.367592 
L 369.244593 -55.059011 
L 368.398349 -58.750431 
L 367.393655 -62.44185 
L 366.221693 -66.133269 
L 364.900114 -69.824688 
L 363.463169 -73.516107 
L 361.946099 -77.207527 
L 360.373099 -80.898946 
L 358.755355 -84.590365 
L 357.098838 -88.281784 
L 355.415352 -91.973203 
L 353.728657 -95.664623 
L 352.070552 -99.356042 
L 350.467393 -103.047461 
L 348.922414 -106.73888 
L 347.401853 -110.430299 
L 345.832733 -114.121719 
L 344.117743 -117.813138 
L 342.167711 -121.504557 
L 339.945045 -125.195976 
L 337.50366 -128.887395 
L 335.00661 -132.578815 
L 332.70653 -136.270234 
L 330.887555 -139.961653 
L 329.785957 -143.653072 
L 329.520416 -147.344491 
L 330.062501 -151.035911 
L 331.261265 -154.72733 
L 332.910208 -158.418749 
L 334.824027 -162.110168 
L 336.888995 -165.801587 
L 339.067199 -169.493007 
L 341.361759 -173.184426 
L 343.770712 -176.875845 
L 346.259067 -180.567264 
L 348.762133 -184.258683 
L 351.211434 -187.950103 
L 353.562188 -191.641522 
L 355.804574 -195.332941 
L 357.954445 -199.02436 
L 360.03221 -202.715779 
L 362.043491 -206.407199 
L 363.971144 -210.098618 
L 365.779987 -213.790037 
L 367.428874 -217.481456 
L 368.883046 -221.172875 
L 370.122297 -224.864295 
L 371.144265 -228.555714 
L 371.964106 -232.247133 
L 372.611327 -235.938552 
L 373.123729 -239.629971 
L 373.538912 -243.321391 
L 373.88573 -247.01281 
L 374.179321 -250.704229 
L 374.422176 -254.395648 
L 374.610643 -258.087067 
L 374.743311 -261.778487 
L 374.826952 -265.469906 
L 374.877421 -269.161325 
L 374.915739 -272.852744 
L 374.961779 -276.544163 
L 375.028466 -280.235583 
L 375.11853 -283.927002 
L 375.224335 -287.618421 
L 375.330207 -291.30984 
L 375.416132 -295.001259 
L 375.461743 -298.692679 
L 375.449945 -302.384098 
L 375.369971 -306.075517 
L 375.219903 -309.766936 
L 375.00847 -313.458355 
L 374.755484 -317.149775 
L 374.490073 -320.841194 
L 374.246419 -324.532613 
L 374.057748 -328.224032 
L 373.950195 -331.915451 
L 373.938201 -335.606871 
L 374.022402 -339.29829 
L 374.190151 -342.989709 
L 374.418371 -346.681128 
L 374.678179 -350.372547 
L 374.940406 -354.063967 
L 376.732838 -354.063967 
L 376.732838 -354.063967 
L 376.995065 -350.372547 
L 377.254873 -346.681128 
L 377.483093 -342.989709 
L 377.650842 -339.29829 
L 377.735042 -335.606871 
L 377.723048 -331.915451 
L 377.615496 -328.224032 
L 377.426825 -324.532613 
L 377.183171 -320.841194 
L 376.91776 -317.149775 
L 376.664773 -313.458355 
L 376.453341 -309.766936 
L 376.303273 -306.075517 
L 376.223299 -302.384098 
L 376.211501 -298.692679 
L 376.257112 -295.001259 
L 376.343037 -291.30984 
L 376.448909 -287.618421 
L 376.554713 -283.927002 
L 376.644777 -280.235583 
L 376.711465 -276.544163 
L 376.757504 -272.852744 
L 376.795822 -269.161325 
L 376.846291 -265.469906 
L 376.929932 -261.778487 
L 377.0626 -258.087067 
L 377.251067 -254.395648 
L 377.493923 -250.704229 
L 377.787514 -247.01281 
L 378.134332 -243.321391 
L 378.549514 -239.629971 
L 379.061917 -235.938552 
L 379.709138 -232.247133 
L 380.528978 -228.555714 
L 381.550947 -224.864295 
L 382.790197 -221.172875 
L 384.24437 -217.481456 
L 385.893257 -213.790037 
L 387.702099 -210.098618 
L 389.629753 -206.407199 
L 391.641033 -202.715779 
L 393.718799 -199.02436 
L 395.868669 -195.332941 
L 398.111055 -191.641522 
L 400.46181 -187.950103 
L 402.91111 -184.258683 
L 405.414177 -180.567264 
L 407.902532 -176.875845 
L 410.311484 -173.184426 
L 412.606044 -169.493007 
L 414.784249 -165.801587 
L 416.849216 -162.110168 
L 418.763036 -158.418749 
L 420.411978 -154.72733 
L 421.610743 -151.035911 
L 422.152827 -147.344491 
L 421.887286 -143.653072 
L 420.785689 -139.961653 
L 418.966714 -136.270234 
L 416.666634 -132.578815 
L 414.169584 -128.887395 
L 411.728198 -125.195976 
L 409.505533 -121.504557 
L 407.555501 -117.813138 
L 405.84051 -114.121719 
L 404.271391 -110.430299 
L 402.750829 -106.73888 
L 401.205851 -103.047461 
L 399.602691 -99.356042 
L 397.944587 -95.664623 
L 396.257892 -91.973203 
L 394.574406 -88.281784 
L 392.917888 -84.590365 
L 391.300145 -80.898946 
L 389.727145 -77.207527 
L 388.210075 -73.516107 
L 386.773129 -69.824688 
L 385.451551 -66.133269 
L 384.279588 -62.44185 
L 383.274894 -58.750431 
L 382.428651 -55.059011 
L 381.707449 -51.367592 
L 381.066011 -47.676173 
L 380.464029 -43.984754 
L 379.87917 -40.293335 
L 379.311388 -36.601915 
L 378.778311 -32.910496 
L 378.304942 -29.219077 
L 377.912191 -25.527658 
L 377.608289 -21.836239 
L 377.385658 -18.144819 
L 377.22372 -14.4534 
L 377.095976 -10.761981 
L 376.97822 -7.070562 
L 376.854634 -3.379143 
L 376.719889 0.312277 
L 376.57734 4.003696 
L 376.435011 7.695115 
L 376.301529 11.386534 
z
" style="stroke: #000000; stroke-opacity: 0.75; stroke-width: 1.3"/>
    </defs>
    <g clip-path="url(#p73356eddba)">
     <use xlink:href="#m54d6cc4f4b" x="0" y="490.398375" style="fill: #da5724; fill-opacity: 0.75; stroke: #000000; stroke-opacity: 0.75; stroke-width: 1.3"/>
    </g>
   </g>
   <g id="FillBetweenPolyCollection_4">
    <defs>
     <path id="md1372a32e3" d="M 499.475702 -309.914877 
L 499.217304 -309.914877 
L 499.221042 -310.692829 
L 499.231617 -311.470781 
L 499.247289 -312.248733 
L 499.265671 -313.026685 
L 499.2843 -313.804637 
L 499.301112 -314.582589 
L 499.314685 -315.360541 
L 499.324209 -316.138493 
L 499.329243 -316.916445 
L 499.329381 -317.694397 
L 499.323961 -318.472349 
L 499.311933 -319.250301 
L 499.291964 -320.028253 
L 499.262803 -320.806205 
L 499.223822 -321.584157 
L 499.175578 -322.362109 
L 499.12014 -323.140061 
L 499.060925 -323.918013 
L 499.001915 -324.695965 
L 498.946351 -325.473917 
L 498.895263 -326.251869 
L 498.846422 -327.029821 
L 498.794243 -327.807773 
L 498.730908 -328.585725 
L 498.648576 -329.363677 
L 498.542046 -330.141629 
L 498.411042 -330.919581 
L 498.261285 -331.697533 
L 498.10387 -332.475485 
L 497.952987 -333.253437 
L 497.822532 -334.031389 
L 497.722542 -334.809341 
L 497.656457 -335.587293 
L 497.619985 -336.365245 
L 497.601861 -337.143197 
L 497.586202 -337.921149 
L 497.555662 -338.699101 
L 497.494452 -339.477053 
L 497.39046 -340.255005 
L 497.236167 -341.032957 
L 497.028569 -341.810909 
L 496.768608 -342.588861 
L 496.46058 -343.366813 
L 496.1117 -344.144765 
L 495.731681 -344.922717 
L 495.331987 -345.700669 
L 494.924568 -346.478621 
L 494.520204 -347.256573 
L 494.126882 -348.034525 
L 493.748715 -348.812477 
L 493.385684 -349.590429 
L 493.034118 -350.368381 
L 492.687457 -351.146333 
L 492.336879 -351.924285 
L 491.9716 -352.702237 
L 491.579089 -353.480189 
L 491.145625 -354.258141 
L 490.657462 -355.036093 
L 490.102382 -355.814045 
L 489.470968 -356.591997 
L 488.756848 -357.369949 
L 487.955612 -358.147901 
L 487.062887 -358.925853 
L 486.072701 -359.703805 
L 484.977474 -360.481757 
L 483.77043 -361.259709 
L 482.45035 -362.037661 
L 481.02748 -362.815613 
L 479.528712 -363.593565 
L 477.999935 -364.371517 
L 476.504002 -365.149469 
L 475.113841 -365.927421 
L 473.90172 -366.705373 
L 472.927057 -367.483325 
L 472.225984 -368.261277 
L 471.805683 -369.039229 
L 471.645324 -369.817181 
L 471.7034 -370.595133 
L 471.929219 -371.373085 
L 472.27488 -372.151037 
L 472.703946 -372.928989 
L 473.194089 -373.706941 
L 473.732927 -374.484893 
L 474.308182 -375.262845 
L 474.894555 -376.040797 
L 475.440251 -376.818749 
L 475.85619 -377.596701 
L 476.011258 -378.374653 
L 475.73776 -379.152605 
L 474.851726 -379.930557 
L 473.191478 -380.708509 
L 470.673061 -381.486461 
L 467.352619 -382.264413 
L 463.476173 -383.042365 
L 459.491771 -383.820317 
L 456.003625 -384.598269 
L 453.66485 -385.376221 
L 453.030298 -386.154173 
L 454.41271 -386.932125 
L 544.280296 -386.932125 
L 544.280296 -386.932125 
L 545.662709 -386.154173 
L 545.028156 -385.376221 
L 542.689382 -384.598269 
L 539.201235 -383.820317 
L 535.216833 -383.042365 
L 531.340388 -382.264413 
L 528.019945 -381.486461 
L 525.501528 -380.708509 
L 523.841281 -379.930557 
L 522.955246 -379.152605 
L 522.681748 -378.374653 
L 522.836817 -377.596701 
L 523.252755 -376.818749 
L 523.798452 -376.040797 
L 524.384824 -375.262845 
L 524.960079 -374.484893 
L 525.498918 -373.706941 
L 525.98906 -372.928989 
L 526.418127 -372.151037 
L 526.763788 -371.373085 
L 526.989606 -370.595133 
L 527.047683 -369.817181 
L 526.887323 -369.039229 
L 526.467022 -368.261277 
L 525.765949 -367.483325 
L 524.791287 -366.705373 
L 523.579166 -365.927421 
L 522.189005 -365.149469 
L 520.693072 -364.371517 
L 519.164294 -363.593565 
L 517.665526 -362.815613 
L 516.242657 -362.037661 
L 514.922577 -361.259709 
L 513.715533 -360.481757 
L 512.620305 -359.703805 
L 511.63012 -358.925853 
L 510.737394 -358.147901 
L 509.936159 -357.369949 
L 509.222039 -356.591997 
L 508.590624 -355.814045 
L 508.035544 -355.036093 
L 507.547381 -354.258141 
L 507.113918 -353.480189 
L 506.721406 -352.702237 
L 506.356127 -351.924285 
L 506.005549 -351.146333 
L 505.658889 -350.368381 
L 505.307322 -349.590429 
L 504.944292 -348.812477 
L 504.566124 -348.034525 
L 504.172803 -347.256573 
L 503.768439 -346.478621 
L 503.36102 -345.700669 
L 502.961325 -344.922717 
L 502.581307 -344.144765 
L 502.232427 -343.366813 
L 501.924398 -342.588861 
L 501.664437 -341.810909 
L 501.45684 -341.032957 
L 501.302546 -340.255005 
L 501.198554 -339.477053 
L 501.137345 -338.699101 
L 501.106804 -337.921149 
L 501.091145 -337.143197 
L 501.073022 -336.365245 
L 501.03655 -335.587293 
L 500.970465 -334.809341 
L 500.870475 -334.031389 
L 500.74002 -333.253437 
L 500.589136 -332.475485 
L 500.431721 -331.697533 
L 500.281964 -330.919581 
L 500.150961 -330.141629 
L 500.044431 -329.363677 
L 499.962098 -328.585725 
L 499.898764 -327.807773 
L 499.846584 -327.029821 
L 499.797744 -326.251869 
L 499.746656 -325.473917 
L 499.691091 -324.695965 
L 499.632082 -323.918013 
L 499.572866 -323.140061 
L 499.517428 -322.362109 
L 499.469185 -321.584157 
L 499.430204 -320.806205 
L 499.401043 -320.028253 
L 499.381074 -319.250301 
L 499.369045 -318.472349 
L 499.363625 -317.694397 
L 499.363764 -316.916445 
L 499.368798 -316.138493 
L 499.378321 -315.360541 
L 499.391894 -314.582589 
L 499.408707 -313.804637 
L 499.427336 -313.026685 
L 499.445718 -312.248733 
L 499.461389 -311.470781 
L 499.471965 -310.692829 
L 499.475702 -309.914877 
z
" style="stroke: #000000; stroke-opacity: 0.75; stroke-width: 1.3"/>
    </defs>
    <g clip-path="url(#p73356eddba)">
     <use xlink:href="#md1372a32e3" x="0" y="490.398375" style="fill: #89c5da; fill-opacity: 0.75; stroke: #000000; stroke-opacity: 0.75; stroke-width: 1.3"/>
    </g>
   </g>
   <g id="FillBetweenPolyCollection_5">
    <defs>
     <path id="m46a61c108b" d="M 623.137794 -242.374543 
L 622.574976 -242.374543 
L 622.554529 -243.83472 
L 622.544241 -245.294898 
L 622.545066 -246.755075 
L 622.556912 -248.215253 
L 622.578647 -249.675431 
L 622.608202 -251.135608 
L 622.642783 -252.595786 
L 622.679154 -254.055963 
L 622.71395 -255.516141 
L 622.743921 -256.976319 
L 622.76606 -258.436496 
L 622.777567 -259.896674 
L 622.775726 -261.356851 
L 622.757803 -262.817029 
L 622.721129 -264.277207 
L 622.663445 -265.737384 
L 622.583493 -267.197562 
L 622.48165 -268.657739 
L 622.360281 -270.117917 
L 622.223498 -271.578095 
L 622.076138 -273.038272 
L 621.922082 -274.49845 
L 621.7624 -275.958627 
L 621.593986 -277.418805 
L 621.409371 -278.878983 
L 621.198023 -280.33916 
L 620.948922 -281.799338 
L 620.653677 -283.259515 
L 620.309136 -284.719693 
L 619.918593 -286.179871 
L 619.491137 -287.640048 
L 619.039401 -289.100226 
L 618.57652 -290.560403 
L 618.113358 -292.020581 
L 617.656931 -293.480759 
L 617.210394 -294.940936 
L 616.774367 -296.401114 
L 616.34885 -297.861291 
L 615.934795 -299.321469 
L 615.534582 -300.781647 
L 615.151181 -302.241824 
L 614.786323 -303.702002 
L 614.438474 -305.162179 
L 614.10147 -306.622357 
L 613.764388 -308.082535 
L 613.412668 -309.542712 
L 613.029968 -311.00289 
L 612.600011 -312.463067 
L 612.107821 -313.923245 
L 611.540245 -315.383423 
L 610.886131 -316.8436 
L 610.136748 -318.303778 
L 609.286893 -319.763955 
L 608.336593 -321.224133 
L 607.292836 -322.684311 
L 606.170443 -324.144488 
L 604.991344 -325.604666 
L 603.781975 -327.064843 
L 602.569137 -328.525021 
L 601.375207 -329.985199 
L 600.213857 -331.445376 
L 599.087385 -332.905554 
L 597.986403 -334.365731 
L 596.892104 -335.825909 
L 595.780744 -337.286087 
L 594.629466 -338.746264 
L 593.422262 -340.206442 
L 592.154742 -341.666619 
L 590.836549 -343.126797 
L 589.490766 -344.586975 
L 588.150367 -346.047152 
L 586.852534 -347.50733 
L 585.632262 -348.967507 
L 584.516781 -350.427685 
L 583.522001 -351.887863 
L 582.651616 -353.34804 
L 581.898892 -354.808218 
L 581.250749 -356.268395 
L 580.693439 -357.728573 
L 580.218736 -359.188751 
L 579.829074 -360.648928 
L 579.539704 -362.109106 
L 579.376094 -363.569283 
L 579.365767 -365.029461 
L 579.525533 -366.489639 
L 579.846976 -367.949816 
L 580.284533 -369.409994 
L 580.750957 -370.870171 
L 581.124193 -372.330349 
L 581.267778 -373.790527 
L 581.063822 -375.250704 
L 580.453656 -376.710882 
L 579.47686 -378.171059 
L 578.296045 -379.631237 
L 577.194683 -381.091415 
L 576.540179 -382.551592 
L 576.714479 -384.01177 
L 578.02686 -385.471947 
L 580.633077 -386.932125 
L 665.079692 -386.932125 
L 665.079692 -386.932125 
L 667.68591 -385.471947 
L 668.99829 -384.01177 
L 669.17259 -382.551592 
L 668.518086 -381.091415 
L 667.416724 -379.631237 
L 666.23591 -378.171059 
L 665.259113 -376.710882 
L 664.648947 -375.250704 
L 664.444991 -373.790527 
L 664.588576 -372.330349 
L 664.961813 -370.870171 
L 665.428236 -369.409994 
L 665.865793 -367.949816 
L 666.187236 -366.489639 
L 666.347003 -365.029461 
L 666.336675 -363.569283 
L 666.173065 -362.109106 
L 665.883696 -360.648928 
L 665.494033 -359.188751 
L 665.01933 -357.728573 
L 664.46202 -356.268395 
L 663.813878 -354.808218 
L 663.061153 -353.34804 
L 662.190768 -351.887863 
L 661.195988 -350.427685 
L 660.080507 -348.967507 
L 658.860236 -347.50733 
L 657.562402 -346.047152 
L 656.222003 -344.586975 
L 654.876221 -343.126797 
L 653.558027 -341.666619 
L 652.290507 -340.206442 
L 651.083304 -338.746264 
L 649.932025 -337.286087 
L 648.820665 -335.825909 
L 647.726366 -334.365731 
L 646.625384 -332.905554 
L 645.498912 -331.445376 
L 644.337563 -329.985199 
L 643.143633 -328.525021 
L 641.930794 -327.064843 
L 640.721425 -325.604666 
L 639.542326 -324.144488 
L 638.419933 -322.684311 
L 637.376176 -321.224133 
L 636.425877 -319.763955 
L 635.576021 -318.303778 
L 634.826638 -316.8436 
L 634.172524 -315.383423 
L 633.604949 -313.923245 
L 633.112758 -312.463067 
L 632.682801 -311.00289 
L 632.300101 -309.542712 
L 631.948381 -308.082535 
L 631.6113 -306.622357 
L 631.274295 -305.162179 
L 630.926446 -303.702002 
L 630.561588 -302.241824 
L 630.178187 -300.781647 
L 629.777974 -299.321469 
L 629.363919 -297.861291 
L 628.938403 -296.401114 
L 628.502375 -294.940936 
L 628.055838 -293.480759 
L 627.599411 -292.020581 
L 627.13625 -290.560403 
L 626.673368 -289.100226 
L 626.221632 -287.640048 
L 625.794176 -286.179871 
L 625.403633 -284.719693 
L 625.059092 -283.259515 
L 624.763847 -281.799338 
L 624.514746 -280.33916 
L 624.303398 -278.878983 
L 624.118783 -277.418805 
L 623.950369 -275.958627 
L 623.790687 -274.49845 
L 623.636631 -273.038272 
L 623.489271 -271.578095 
L 623.352488 -270.117917 
L 623.231119 -268.657739 
L 623.129276 -267.197562 
L 623.049325 -265.737384 
L 622.99164 -264.277207 
L 622.954966 -262.817029 
L 622.937043 -261.356851 
L 622.935202 -259.896674 
L 622.946709 -258.436496 
L 622.968848 -256.976319 
L 622.998819 -255.516141 
L 623.033615 -254.055963 
L 623.069986 -252.595786 
L 623.104567 -251.135608 
L 623.134123 -249.675431 
L 623.155858 -248.215253 
L 623.167704 -246.755075 
L 623.168528 -245.294898 
L 623.15824 -243.83472 
L 623.137794 -242.374543 
z
" style="stroke: #000000; stroke-opacity: 0.75; stroke-width: 1.3"/>
    </defs>
    <g clip-path="url(#p73356eddba)">
     <use xlink:href="#m46a61c108b" x="0" y="490.398375" style="fill: #f0e442; fill-opacity: 0.75; stroke: #000000; stroke-opacity: 0.75; stroke-width: 1.3"/>
    </g>
   </g>
   <g id="FillBetweenPolyCollection_6">
    <defs>
     <path id="ma34bb0a658" d="M 746.552996 -110.904127 
L 746.179536 -110.904127 
L 746.183023 -113.692288 
L 746.194683 -116.48045 
L 746.209885 -119.268611 
L 746.222289 -122.056773 
L 746.225003 -124.844935 
L 746.211937 -127.633096 
L 746.179192 -130.421258 
L 746.126295 -133.209419 
L 746.057052 -135.997581 
L 745.979623 -138.785743 
L 745.905487 -141.573904 
L 745.847218 -144.362066 
L 745.815488 -147.150227 
L 745.816158 -149.938389 
L 745.848467 -152.726551 
L 745.904953 -155.514712 
L 745.973091 -158.302874 
L 746.037992 -161.091035 
L 746.085213 -163.879197 
L 746.102955 -166.667359 
L 746.083341 -169.45552 
L 746.022929 -172.243682 
L 745.922676 -175.031843 
L 745.787482 -177.820005 
L 745.62519 -180.608167 
L 745.444942 -183.396328 
L 745.254995 -186.18449 
L 745.060514 -188.972651 
L 744.862082 -191.760813 
L 744.655629 -194.548975 
L 744.434013 -197.337136 
L 744.189872 -200.125298 
L 743.91876 -202.913459 
L 743.621369 -205.701621 
L 743.303875 -208.489783 
L 742.97614 -211.277944 
L 742.648421 -214.066106 
L 742.327895 -216.854267 
L 742.016468 -219.642429 
L 741.71068 -222.430591 
L 741.403517 -225.218752 
L 741.086943 -228.006914 
L 740.753732 -230.795075 
L 740.39774 -233.583237 
L 740.012836 -236.371399 
L 739.591569 -239.15956 
L 739.124774 -241.947722 
L 738.602609 -244.735883 
L 738.016496 -247.524045 
L 737.360749 -250.312207 
L 736.63289 -253.100368 
L 735.832542 -255.88853 
L 734.959918 -258.676691 
L 734.015337 -261.464853 
L 733.000636 -264.253015 
L 731.921827 -267.041176 
L 730.791044 -269.829338 
L 729.62553 -272.617499 
L 728.442733 -275.405661 
L 727.252957 -278.193823 
L 726.052915 -280.981984 
L 724.823928 -283.770146 
L 723.536722 -286.558307 
L 722.161747 -289.346469 
L 720.681147 -292.134631 
L 719.097312 -294.922792 
L 717.434151 -297.710954 
L 715.730317 -300.499115 
L 714.027347 -303.287277 
L 712.358251 -306.075439 
L 710.741992 -308.8636 
L 709.18631 -311.651762 
L 707.696793 -314.439923 
L 706.286476 -317.228085 
L 704.979837 -320.016247 
L 703.808422 -322.804408 
L 702.800413 -325.59257 
L 701.970263 -328.380731 
L 701.314415 -331.168893 
L 700.815363 -333.957055 
L 700.45128 -336.745216 
L 700.205535 -339.533378 
L 700.071286 -342.321539 
L 700.050061 -345.109701 
L 700.147066 -347.897863 
L 700.367249 -350.686024 
L 700.714225 -353.474186 
L 701.190828 -356.262347 
L 701.798153 -359.050509 
L 702.531448 -361.838671 
L 703.375604 -364.626832 
L 704.306797 -367.414994 
L 705.306172 -370.203155 
L 706.384669 -372.991317 
L 707.608128 -375.779479 
L 709.105388 -378.56764 
L 711.045446 -381.355802 
L 713.583658 -384.143963 
L 716.794868 -386.932125 
L 775.937664 -386.932125 
L 775.937664 -386.932125 
L 779.148874 -384.143963 
L 781.687086 -381.355802 
L 783.627144 -378.56764 
L 785.124404 -375.779479 
L 786.347863 -372.991317 
L 787.426361 -370.203155 
L 788.425735 -367.414994 
L 789.356928 -364.626832 
L 790.201084 -361.838671 
L 790.934379 -359.050509 
L 791.541704 -356.262347 
L 792.018307 -353.474186 
L 792.365283 -350.686024 
L 792.585466 -347.897863 
L 792.682472 -345.109701 
L 792.661246 -342.321539 
L 792.526997 -339.533378 
L 792.281252 -336.745216 
L 791.917169 -333.957055 
L 791.418117 -331.168893 
L 790.762269 -328.380731 
L 789.932119 -325.59257 
L 788.92411 -322.804408 
L 787.752695 -320.016247 
L 786.446056 -317.228085 
L 785.035739 -314.439923 
L 783.546222 -311.651762 
L 781.99054 -308.8636 
L 780.374281 -306.075439 
L 778.705186 -303.287277 
L 777.002216 -300.499115 
L 775.298381 -297.710954 
L 773.63522 -294.922792 
L 772.051386 -292.134631 
L 770.570786 -289.346469 
L 769.195811 -286.558307 
L 767.908604 -283.770146 
L 766.679617 -280.981984 
L 765.479575 -278.193823 
L 764.289799 -275.405661 
L 763.107003 -272.617499 
L 761.941488 -269.829338 
L 760.810706 -267.041176 
L 759.731896 -264.253015 
L 758.717195 -261.464853 
L 757.772614 -258.676691 
L 756.89999 -255.88853 
L 756.099643 -253.100368 
L 755.371783 -250.312207 
L 754.716036 -247.524045 
L 754.129923 -244.735883 
L 753.607759 -241.947722 
L 753.140963 -239.15956 
L 752.719696 -236.371399 
L 752.334792 -233.583237 
L 751.9788 -230.795075 
L 751.645589 -228.006914 
L 751.329015 -225.218752 
L 751.021852 -222.430591 
L 750.716065 -219.642429 
L 750.404637 -216.854267 
L 750.084111 -214.066106 
L 749.756392 -211.277944 
L 749.428657 -208.489783 
L 749.111163 -205.701621 
L 748.813772 -202.913459 
L 748.54266 -200.125298 
L 748.298519 -197.337136 
L 748.076903 -194.548975 
L 747.87045 -191.760813 
L 747.672019 -188.972651 
L 747.477537 -186.18449 
L 747.28759 -183.396328 
L 747.107342 -180.608167 
L 746.94505 -177.820005 
L 746.809856 -175.031843 
L 746.709604 -172.243682 
L 746.649191 -169.45552 
L 746.629578 -166.667359 
L 746.647319 -163.879197 
L 746.69454 -161.091035 
L 746.759441 -158.302874 
L 746.82758 -155.514712 
L 746.884065 -152.726551 
L 746.916374 -149.938389 
L 746.917044 -147.150227 
L 746.885314 -144.362066 
L 746.827045 -141.573904 
L 746.75291 -138.785743 
L 746.67548 -135.997581 
L 746.606237 -133.209419 
L 746.55334 -130.421258 
L 746.520595 -127.633096 
L 746.507529 -124.844935 
L 746.510243 -122.056773 
L 746.522647 -119.268611 
L 746.537849 -116.48045 
L 746.549509 -113.692288 
L 746.552996 -110.904127 
z
" style="stroke: #000000; stroke-opacity: 0.75; stroke-width: 1.3"/>
    </defs>
    <g clip-path="url(#p73356eddba)">
     <use xlink:href="#ma34bb0a658" x="0" y="490.398375" style="fill: #da5724; fill-opacity: 0.75; stroke: #000000; stroke-opacity: 0.75; stroke-width: 1.3"/>
    </g>
   </g>
   <g id="LineCollection_1">
    <path d="M 105.658756 277.330112 
L 151.974962 277.330112 
" clip-path="url(#p73356eddba)" style="fill: none; stroke: #c93312; stroke-width: 2.5"/>
    <path d="M 229.168638 312.624494 
L 275.484843 312.624494 
" clip-path="url(#p73356eddba)" style="fill: none; stroke: #c93312; stroke-width: 2.5"/>
    <path d="M 352.678519 345.934059 
L 398.994725 345.934059 
" clip-path="url(#p73356eddba)" style="fill: none; stroke: #c93312; stroke-width: 2.5"/>
    <path d="M 476.1884 116.561868 
L 522.504606 116.561868 
" clip-path="url(#p73356eddba)" style="fill: none; stroke: #c93312; stroke-width: 2.5"/>
    <path d="M 599.698282 134.259916 
L 646.014487 134.259916 
" clip-path="url(#p73356eddba)" style="fill: none; stroke: #c93312; stroke-width: 2.5"/>
    <path d="M 723.208163 162.252533 
L 769.524369 162.252533 
" clip-path="url(#p73356eddba)" style="fill: none; stroke: #c93312; stroke-width: 2.5"/>
   </g>
   <g id="LineCollection_2">
    <path d="M 105.658756 140.114308 
L 151.974962 140.114308 
" clip-path="url(#p73356eddba)" style="fill: none; stroke: #1f77b4; stroke-width: 2.5"/>
    <path d="M 229.168638 143.682426 
L 275.484843 143.682426 
" clip-path="url(#p73356eddba)" style="fill: none; stroke: #1f77b4; stroke-width: 2.5"/>
    <path d="M 352.678519 136.334408 
L 398.994725 136.334408 
" clip-path="url(#p73356eddba)" style="fill: none; stroke: #1f77b4; stroke-width: 2.5"/>
    <path d="M 476.1884 103.46625 
L 522.504606 103.46625 
" clip-path="url(#p73356eddba)" style="fill: none; stroke: #1f77b4; stroke-width: 2.5"/>
    <path d="M 599.698282 103.46625 
L 646.014487 103.46625 
" clip-path="url(#p73356eddba)" style="fill: none; stroke: #1f77b4; stroke-width: 2.5"/>
    <path d="M 723.208163 103.46625 
L 769.524369 103.46625 
" clip-path="url(#p73356eddba)" style="fill: none; stroke: #1f77b4; stroke-width: 2.5"/>
   </g>
   <g id="LineCollection_3">
    <path d="M 105.658756 342.164279 
L 151.974962 342.164279 
" clip-path="url(#p73356eddba)" style="fill: none; stroke: #1f77b4; stroke-width: 2.5"/>
    <path d="M 229.168638 429.69406 
L 275.484843 429.69406 
" clip-path="url(#p73356eddba)" style="fill: none; stroke: #1f77b4; stroke-width: 2.5"/>
    <path clip-path="url(#p73356eddba)" style="fill: none; stroke: #1f77b4; stroke-width: 2.5"/>
    <path d="M 476.1884 180.483498 
L 522.504606 180.483498 
" clip-path="url(#p73356eddba)" style="fill: none; stroke: #1f77b4; stroke-width: 2.5"/>
    <path d="M 599.698282 248.023832 
L 646.014487 248.023832 
" clip-path="url(#p73356eddba)" style="fill: none; stroke: #1f77b4; stroke-width: 2.5"/>
    <path d="M 723.208163 379.494248 
L 769.524369 379.494248 
" clip-path="url(#p73356eddba)" style="fill: none; stroke: #1f77b4; stroke-width: 2.5"/>
   </g>
   <g id="LineCollection_4">
    <path d="M 128.816859 342.164279 
L 128.816859 140.114308 
" clip-path="url(#p73356eddba)" style="fill: none; stroke: #1f77b4; stroke-width: 2.5"/>
    <path d="M 252.32674 429.69406 
L 252.32674 143.682426 
" clip-path="url(#p73356eddba)" style="fill: none; stroke: #1f77b4; stroke-width: 2.5"/>
    <path d="M 375.836622 491.398375 
L 375.836622 136.334408 
" clip-path="url(#p73356eddba)" style="fill: none; stroke: #1f77b4; stroke-width: 2.5"/>
    <path d="M 499.346503 180.483498 
L 499.346503 103.46625 
" clip-path="url(#p73356eddba)" style="fill: none; stroke: #1f77b4; stroke-width: 2.5"/>
    <path d="M 622.856385 248.023832 
L 622.856385 103.46625 
" clip-path="url(#p73356eddba)" style="fill: none; stroke: #1f77b4; stroke-width: 2.5"/>
    <path d="M 746.366266 379.494248 
L 746.366266 103.46625 
" clip-path="url(#p73356eddba)" style="fill: none; stroke: #1f77b4; stroke-width: 2.5"/>
   </g>
   <g id="LineCollection_5">
    <path d="M 105.658756 288.485053 
L 151.974962 288.485053 
" clip-path="url(#p73356eddba)" style="fill: none; stroke: #000000; stroke-width: 2.5"/>
    <path d="M 229.168638 314.887244 
L 275.484843 314.887244 
" clip-path="url(#p73356eddba)" style="fill: none; stroke: #000000; stroke-width: 2.5"/>
    <path d="M 352.678519 345.686382 
L 398.994725 345.686382 
" clip-path="url(#p73356eddba)" style="fill: none; stroke: #000000; stroke-width: 2.5"/>
    <path d="M 476.1884 114.767694 
L 522.504606 114.767694 
" clip-path="url(#p73356eddba)" style="fill: none; stroke: #000000; stroke-width: 2.5"/>
    <path d="M 599.698282 130.686736 
L 646.014487 130.686736 
" clip-path="url(#p73356eddba)" style="fill: none; stroke: #000000; stroke-width: 2.5"/>
    <path d="M 723.208163 155.701264 
L 769.524369 155.701264 
" clip-path="url(#p73356eddba)" style="fill: none; stroke: #000000; stroke-width: 2.5"/>
   </g>
   <g id="line2d_29">
    <path d="M 437.591563 436.10625 
L 437.591563 48.02625 
" clip-path="url(#p73356eddba)" style="fill: none; stroke-dasharray: 7.4,3.2; stroke-dashoffset: 0; stroke: #808080; stroke-opacity: 0.5; stroke-width: 2"/>
   </g>
   <g id="patch_3">
    <path d="M 46.991563 436.10625 
L 46.991563 48.02625 
" style="fill: none; stroke: #000000; stroke-width: 1.5; stroke-linejoin: miter; stroke-linecap: square"/>
   </g>
   <g id="patch_4">
    <path d="M 828.191563 436.10625 
L 828.191563 48.02625 
" style="fill: none; stroke: #000000; stroke-width: 1.5; stroke-linejoin: miter; stroke-linecap: square"/>
   </g>
   <g id="patch_5">
    <path d="M 46.991563 436.10625 
L 828.191563 436.10625 
" style="fill: none; stroke: #000000; stroke-width: 1.5; stroke-linejoin: miter; stroke-linecap: square"/>
   </g>
   <g id="patch_6">
    <path d="M 46.991563 48.02625 
L 828.191563 48.02625 
" style="fill: none; stroke: #000000; stroke-width: 1.5; stroke-linejoin: miter; stroke-linecap: square"/>
   </g>
   <g id="text_17">
    <text style="font-weight: 700; font-size: 15px; font-family: 'Palatino', 'Times New Roman', 'DejaVu Serif', serif" transform="translate(269.394688 17.467969)">Distribución del Nivel de Servicio por Configuración</text>
    <text style="font-weight: 700; font-size: 15px; font-family: 'Palatino', 'Times New Roman', 'DejaVu Serif', serif" transform="translate(345.94625 33.02625)">(1,000 réplicas Monte Carlo)</text>
   </g>
   <g id="legend_1">
    <g id="patch_7">
     <path d="M 56.691563 432.60625 
L 205.219063 432.60625 
Q 207.419063 432.60625 207.419063 430.40625 
L 207.419063 384.826719 
Q 207.419063 382.626719 205.219063 382.626719 
L 56.691563 382.626719 
Q 54.491563 382.626719 54.491563 384.826719 
L 54.491563 430.40625 
Q 54.491563 432.60625 56.691563 432.60625 
z
" style="fill: #4d4d4d; opacity: 0.5; stroke: #4d4d4d; stroke-width: 1.3; stroke-linejoin: miter"/>
    </g>
    <g id="patch_8">
     <path d="M 54.691563 430.60625 
L 203.219063 430.60625 
Q 205.419063 430.60625 205.419063 428.40625 
L 205.419063 382.826719 
Q 205.419063 380.626719 203.219063 380.626719 
L 54.691563 380.626719 
Q 52.491563 380.626719 52.491563 382.826719 
L 52.491563 428.40625 
Q 52.491563 430.60625 54.691563 430.60625 
z
" style="fill: #ffffff; stroke: #cccccc; stroke-width: 1.3; stroke-linejoin: miter"/>
    </g>
    <g id="patch_9">
     <path d="M 56.891563 392.726719 
L 78.891563 392.726719 
L 78.891563 385.026719 
L 56.891563 385.026719 
z
" style="fill: #89c5da; stroke: #000000; stroke-width: 1.3; stroke-linejoin: miter"/>
    </g>
    <g id="text_18">
     <text style="font-size: 11px; font-family: 'Palatino', 'Times New Roman', 'DejaVu Serif', serif; text-anchor: start" x="87.691563" y="392.726719" transform="rotate(-0 87.691563 392.726719)">Duración Corta (7 días)</text>
    </g>
    <g id="patch_10">
     <path d="M 56.891563 408.279687 
L 78.891563 408.279687 
L 78.891563 400.579687 
L 56.891563 400.579687 
z
" style="fill: #f0e442; stroke: #000000; stroke-width: 1.3; stroke-linejoin: miter"/>
    </g>
    <g id="text_19">
     <text style="font-size: 11px; font-family: 'Palatino', 'Times New Roman', 'DejaVu Serif', serif; text-anchor: start" x="87.691563" y="408.279687" transform="rotate(-0 87.691563 408.279687)">Duración Media (14 días)</text>
    </g>
    <g id="patch_11">
     <path d="M 56.891563 423.832656 
L 78.891563 423.832656 
L 78.891563 416.132656 
L 56.891563 416.132656 
z
" style="fill: #da5724; stroke: #000000; stroke-width: 1.3; stroke-linejoin: miter"/>
    </g>
    <g id="text_20">
     <text style="font-size: 11px; font-family: 'Palatino', 'Times New Roman', 'DejaVu Serif', serif; text-anchor: start" x="87.691563" y="423.832656" transform="rotate(-0 87.691563 423.832656)">Duración Larga (21 días)</text>
    </g>
   </g>
  </g>
 </g>
 <defs>
  <clipPath id="p73356eddba">
   <rect x="46.991563" y="48.02625" width="781.2" height="388.08"/>
  </clipPath>
 </defs>
</svg>
